# xmcd
#
# Track frame offsets:
#	150
#	41049
#	54644
#	67017
#	79139
#	92409
#	101325
#	117120
#	129467
#	143158
#
# Disc length: 2092 seconds
#
# Revision: 1
# Processed by: cddbd v1.5.1PL2 Copyright (c) Steve Scherf et al.
# Submitted via: EasyCDDAExtractor 8.2.0.1
#
DISCID=83082a0a
DTITLE=Various Artist - Best Of Big Band Disc 3
DYEAR=2003
DGENRE=Big Band
TTITLE0=Duke Ellington - Satin Doll
TTITLE1=Glenn Miller Orchestra - Little Brown Jug
TTITLE2=Artie Shaw - My Heart Stood Still
TTITLE3=Tommy Dorsey - April In Paris
TTITLE4=Benny Goodman - Franckie and Johnny
TTITLE5=Woody Herman - Ain't Misbehavin
TTITLE6=Les Brown - Cabin In TheSky
TTITLE7=Tommy Dorsey - In A Little Spanish Town
TTITLE8=Duke Ellington - Take the "A' Train
TTITLE9=Count Basie - All Of Me
EXTD=
EXTT0=
EXTT1=
EXTT2=
EXTT3=
EXTT4=
EXTT5=
EXTT6=
EXTT7=
EXTT8=
EXTT9=
PLAYORDER=
